<svg version="1.1" id="Layer_1" xmlns="http://www.w3.org/2000/svg" x="0" y="0" viewBox="0 0 500 166.501" style="enable-background:new 0 0 500 166.501" xml:space="preserve"><style>.st0{fill:#fff}</style><path class="st0" d="M182.815 164.278a.748.748 0 0 1-.669 1.082H83.369C37.126 165.36 0 128.691 0 82.68S37.126 0 83.369 0c46.237 0 83.363 36.669 83.363 82.68 0 11.371-2.268 22.17-6.377 31.986a1.332 1.332 0 0 1-1.23.813h-37.702c-.666 0-1.043-.769-.627-1.29 6.813-8.521 10.856-19.473 10.856-31.509 0-27.558-21.183-49.43-48.284-49.43-27.107 0-48.291 21.872-48.291 49.43s23.393 49.43 50.5 49.43h80.118c.634 0 1.214.358 1.498.926l15.622 31.242zM199.493 110.954h15.522l7.685 27.317c.457 1.725.9 3.451 1.332 5.174.43 1.725.799 3.299 1.103 4.718.354 1.675.685 3.272.989 4.794h.153c.304-1.522.634-3.119.989-4.794a970.77 970.77 0 0 1 1.027-4.718 78.467 78.467 0 0 1 1.331-5.174l7.685-27.317h15.751v54.405h-10.272v-31.197c0-1.116.012-2.321.038-3.615.025-1.293.088-2.522.19-3.69.05-1.318.126-2.637.228-3.956h-.152a523.315 523.315 0 0 1-.761 3.728l-.799 3.348a314.523 314.523 0 0 1-.799 3.272l-9.359 32.11h-10.577l-9.131-32.11a43.04 43.04 0 0 1-.837-3.272 173.729 173.729 0 0 0-.761-3.348c-.254-1.217-.508-2.46-.761-3.728h-.153c.05 1.32.126 2.639.229 3.956.05 1.168.101 2.397.152 3.69.05 1.295.076 2.499.076 3.615v31.197h-10.12v-54.405zM277.41 166.501c-3.247 0-6.126-.532-8.637-1.598-2.511-1.065-4.629-2.524-6.354-4.376-1.725-1.851-3.031-4.045-3.918-6.582-.889-2.535-1.332-5.25-1.332-8.142 0-2.891.469-5.592 1.408-8.103.938-2.512 2.256-4.68 3.957-6.506 1.699-1.827 3.728-3.272 6.087-4.338s4.958-1.598 7.799-1.598c3.145 0 5.909.57 8.294 1.712a16.642 16.642 0 0 1 6.011 4.833c1.623 2.08 2.853 4.553 3.691 7.419.837 2.867 1.255 6.049 1.255 9.549h-28.306c.405 3.044 1.432 5.428 3.082 7.153 1.648 1.725 3.944 2.587 6.886 2.587 2.028 0 3.652-.43 4.87-1.293 1.217-.862 2.104-2.028 2.663-3.5h10.197a15.418 15.418 0 0 1-1.941 4.908c-.939 1.548-2.157 2.905-3.652 4.071-1.497 1.167-3.26 2.093-5.288 2.777-2.03.684-4.287 1.027-6.772 1.027zm-.838-33.252c-2.739 0-4.82.749-6.239 2.245-1.421 1.496-2.359 3.538-2.815 6.125h17.349c-.152-2.484-.977-4.501-2.473-6.049-1.497-1.547-3.437-2.321-5.822-2.321zM295.9 126.324h5.402V114.15h10.12v12.174h6.696v6.848h-6.696v20.696c0 1.472.354 2.487 1.065 3.044.71.559 1.648.837 2.815.837h1.978c.354 0 .71-.025 1.065-.077v7.61c-.508.051-1.065.076-1.674.076-.559.05-1.244.076-2.054.076h-2.739c-1.269 0-2.524-.139-3.766-.418a9.411 9.411 0 0 1-3.386-1.485c-1.015-.71-1.839-1.674-2.473-2.891-.635-1.217-.951-2.739-.951-4.566v-22.903H295.9v-6.847zM331.89 132.564h.228c1.166-2.231 2.485-3.906 3.957-5.022 1.47-1.115 3.348-1.674 5.63-1.674 1.065 0 1.876.101 2.435.304v9.054h-.228c-3.399-.354-6.19.381-8.37 2.207-2.182 1.827-3.272 4.794-3.272 8.903v19.023h-10.348v-39.035h9.968v6.24zM347.108 110.954h10.348v9.283h-10.348v-9.283zm0 15.37h10.348v39.035h-10.348v-39.035zM380.74 166.501c-3.095 0-5.872-.532-8.332-1.598-2.461-1.065-4.553-2.524-6.277-4.376-1.725-1.851-3.057-4.033-3.995-6.544-.939-2.511-1.408-5.212-1.408-8.104 0-2.891.457-5.592 1.37-8.103.913-2.512 2.218-4.692 3.918-6.544 1.699-1.851 3.74-3.31 6.126-4.376 2.384-1.065 5.072-1.598 8.065-1.598 2.536 0 4.819.356 6.848 1.065 2.028.711 3.792 1.687 5.288 2.929a15 15 0 0 1 3.652 4.49c.938 1.751 1.585 3.69 1.941 5.821h-10.121c-.355-1.724-1.154-3.158-2.397-4.3-1.243-1.14-2.828-1.712-4.756-1.712-3.146 0-5.505 1.103-7.076 3.31-1.573 2.207-2.359 5.212-2.359 9.016 0 3.704.748 6.685 2.245 8.941 1.496 2.257 3.843 3.386 7.038 3.386 2.131 0 3.881-.545 5.25-1.636 1.369-1.091 2.232-2.752 2.587-4.985h9.968c-.152 2.081-.673 4.021-1.56 5.821a15.522 15.522 0 0 1-3.576 4.718c-1.497 1.345-3.299 2.411-5.403 3.196-2.103.789-4.449 1.183-7.036 1.183z"/><g><path class="st0" d="m258.033 94.28-8.888-9.89c4.885-5.793 7.206-13.372 7.206-20.615 0-14.57-9.464-30.505-30.157-30.505s-30.157 15.936-30.157 30.505 9.382 30.505 30.157 30.505c6.23 0 11.428-1.441 15.664-3.841l3.494 3.841h12.681zm-31.839-10.661c-12.126 0-18.445-9.85-18.445-19.845s6.209-19.338 18.445-19.338c12.737 0 18.445 9.344 18.445 19.338 0 4.306-1.001 8.583-3.183 12.059l-3.964-4.411h-12.935l9.687 10.648c-2.27.986-4.94 1.549-8.05 1.549zM286.555 90.979v-4.566h-.229c-1.32 1.776-2.828 3.158-4.528 4.148-1.7.988-3.919 1.484-6.658 1.484-4.364 0-7.711-1.267-10.045-3.805-2.334-2.536-3.5-5.961-3.5-10.273V51.942h10.273v24.274c0 2.283.52 4.034 1.56 5.251 1.039 1.217 2.675 1.826 4.909 1.826 2.435 0 4.349-.824 5.745-2.473 1.395-1.647 2.093-3.767 2.093-6.354V51.942h10.349v39.037h-9.969zM326.276 90.979c-.304-.405-.559-1.014-.761-1.827a19.932 19.932 0 0 1-.457-2.511h-.152a13.79 13.79 0 0 1-1.712 2.093c-.635.635-1.396 1.179-2.283 1.636-.888.457-1.94.825-3.158 1.103-1.217.279-2.664.419-4.337.419-4.008 0-7.281-1.015-9.816-3.044-2.537-2.028-3.805-4.996-3.805-8.903 0-2.131.405-3.931 1.218-5.403a10.466 10.466 0 0 1 3.348-3.652c1.42-.963 3.082-1.712 4.985-2.245a46.821 46.821 0 0 1 6.125-1.256c3.246-.456 5.631-.938 7.153-1.446 1.522-.507 2.283-1.496 2.283-2.968 0-1.419-.546-2.549-1.636-3.386-1.091-.836-2.727-1.256-4.908-1.256-2.435 0-4.261.445-5.479 1.332-1.217.889-1.903 2.271-2.055 4.148h-9.207c.05-1.724.43-3.36 1.141-4.908.71-1.547 1.75-2.904 3.12-4.072 1.37-1.166 3.094-2.104 5.175-2.815 2.079-.71 4.539-1.065 7.381-1.065 5.833 0 10.031 1.256 12.594 3.767 2.561 2.511 3.843 6.049 3.843 10.615v19.861c0 2.943.457 4.744 1.37 5.403v.38h-9.97zm-10.349-6.316c1.471 0 2.778-.215 3.919-.647 1.141-.431 2.105-.989 2.892-1.674a6.942 6.942 0 0 0 1.788-2.359 6.616 6.616 0 0 0 .609-2.778v-5.859c-.913.56-2.016 1.003-3.31 1.332-1.294.332-2.6.647-3.919.951-2.739.609-4.769 1.32-6.087 2.131-1.32.812-1.979 2.131-1.979 3.957 0 1.827.558 3.109 1.674 3.844 1.115.735 2.587 1.102 4.413 1.102zM350.018 57.268h.228c1.319-2.13 2.904-3.729 4.756-4.794 1.852-1.065 4.121-1.598 6.811-1.598 2.028 0 3.868.369 5.517 1.103 1.648.736 3.056 1.75 4.223 3.044 1.167 1.294 2.08 2.828 2.74 4.603.659 1.777.989 3.73.989 5.859v25.492h-10.349v-23.97c0-2.131-.584-3.855-1.75-5.175-1.167-1.318-2.841-1.978-5.022-1.978-2.283 0-4.174.825-5.669 2.473-1.497 1.648-2.245 3.817-2.245 6.506v22.144h-10.349V51.942h10.121v5.326zM377.108 51.942h5.403V39.767h10.121v12.175h6.696v6.849h-6.696v20.697c0 1.472.354 2.487 1.065 3.044.71.559 1.648.837 2.816.837h1.978c.354 0 .71-.025 1.065-.077v7.61c-.508.051-1.065.076-1.674.076-.559.05-1.244.076-2.054.076h-2.74c-1.269 0-2.524-.139-3.767-.418a9.411 9.411 0 0 1-3.386-1.485c-1.015-.71-1.839-1.674-2.473-2.891-.635-1.217-.951-2.739-.951-4.566V58.791h-5.403v-6.849zM427.786 90.979v-4.566h-.229c-1.32 1.776-2.828 3.158-4.528 4.148-1.7.988-3.919 1.484-6.658 1.484-4.364 0-7.711-1.267-10.045-3.805-2.334-2.536-3.5-5.961-3.5-10.273V51.942H413.1v24.274c0 2.283.52 4.034 1.56 5.251 1.039 1.217 2.675 1.826 4.909 1.826 2.435 0 4.349-.824 5.745-2.473 1.395-1.647 2.093-3.767 2.093-6.354V51.942h10.349v39.037h-9.97zM442.929 51.942h9.969v5.25h.228c1.065-1.775 2.536-3.271 4.413-4.489 1.876-1.217 4.186-1.827 6.925-1.827 2.485 0 4.667.622 6.544 1.865 1.876 1.243 3.297 2.904 4.262 4.984h.152c1.318-2.131 2.979-3.805 4.984-5.022 2.004-1.217 4.249-1.827 6.735-1.827 4.109 0 7.279 1.23 9.512 3.69 2.232 2.461 3.348 5.848 3.348 10.159v26.253h-10.349V66.476c0-2.231-.521-3.906-1.56-5.022-1.04-1.115-2.524-1.674-4.451-1.674-2.182 0-3.894.774-5.137 2.321-1.244 1.548-1.864 3.614-1.864 6.201v22.676h-10.35V66.476c0-2.231-.521-3.906-1.56-5.022-1.041-1.115-2.524-1.674-4.452-1.674-2.131 0-3.831.774-5.099 2.321-1.268 1.548-1.902 3.614-1.902 6.201v22.676h-10.349V51.942z"/></g></svg>